<?xml version="1.0" encoding="utf-8"?>
<!-- Generator: Adobe Illustrator 21.0.0, SVG Export Plug-In . SVG Version: 6.00 Build 0)  -->
<svg version="1.1" id="Layer_1" xmlns="http://www.w3.org/2000/svg" xmlns:xlink="http://www.w3.org/1999/xlink" x="0px" y="0px"
	 width="248.9px" height="206px" viewBox="0 0 248.9 206" style="enable-background:new 0 0 248.9 206;" xml:space="preserve">
<style type="text/css">
	.st0{fill:none;stroke:#1B75BC;stroke-width:2;stroke-miterlimit:10;}
	.st1{fill:#2B93E6;}
</style>
<path class="st0" d="M176.5,28.1c-3.4-2.8-5.2-4.1-9.2-6.4c-2.8-1.6-5.6-2.8-8.5-3.9c-6-2.2-12-4.4-18.4-5.3
	c-4.7-0.7-9.3-1.3-14.1-1.5c-8.8-0.4-18.5,0.8-27.1,2.8c-8.9,2.1-17.9,5.3-25.3,10.8c-3.4,2.5-7.2,4.3-10.6,6.9
	c-3.2,2.5-5.7,5.8-8.6,8.5c-1.8,1.7-3.3,3.4-4.7,5.5c-1.4,2-2.8,3.9-4.2,6c-1.4,2-2.3,4.2-3.7,6.3c-2.2,3.3-3,6.3-4.2,10.1
	c-1.6,4.8-3.5,9.5-5,14.3c-3.1,9.9-2.8,21.1-1.8,31.3c0.4,4.6,1.1,9,1.8,13.5c0.3,1.8,0.4,3.4,1,5c0.6,1.7,1,3.5,1.6,5.1
	c1.6,4,3.9,7.8,5.7,11.8c1.1,2.5,2.7,5,4.3,7.2c1.1,1.4,1.4,3.2,2.4,4.6c1,1.4,2.7,2.8,4,4.1c0.9,0.9,1.8,1.7,2.6,2.6
	c1.5,1.8,3.2,3.3,4.6,5c1.5,2,3.7,3.1,5.6,4.7c0.9,0.8,1.5,1.8,2.4,2.5c0.8,0.6,1.7,1.1,2.5,1.8c3.2,2.8,7.5,4.5,11.2,6.4
	c3,1.5,6,2.4,9,3.8c5.4,2.5,11.4,3.5,17.2,4.6c6.4,1.2,12.9,0.8,19.3,1.5c6.5,0.6,12.2-0.8,18.4-1.7c6.2-0.9,12.6-3.5,18.2-6.3
	c2.5-1.3,5.1-2.5,7.6-3.9c2.7-1.6,5.3-3.2,7.9-4.9c4.1-2.7,7.4-6.7,11-10.1c1.2-1.1,2.5-2.2,3.7-3.3c3.3-3.2,5.8-7.3,7.8-11.3
	c0.5-1,1.4-1.9,2-2.9c1.3-2,2.8-3.8,4-5.9c1.7-3,3.4-6.7,4.5-10c1.1-3.4,2.6-7,3.3-10.5c0.8-4,1.5-7.7,1.9-11.7
	c0.5-4.7,0.1-9,0.1-13.7c0-2.4,0.3-4.7,0.2-7.1c-0.1-2-1.3-3.8-1.6-5.8c-0.3-2.2-0.1-4.5-0.5-6.8c-0.9-4.7-2.8-9.1-4.5-13.5
	c-1.2-3.2-2.9-6.6-4.9-9.2c-2-2.6-3.1-5.7-5.2-8.2c-0.9-1.1-1.2-1.3-2.2-2.4"/>
<path class="st1" d="M105.8,140.4c1.2,0.6,2.5,1,3.8,1.6c2.3,1,4.8,1.5,7.2,1.9c2.7,0.5,5.4,0.3,8.2,0.6c2.7,0.3,5.2-0.3,7.8-0.7
	c2.6-0.4,5.3-1.5,7.7-2.6c1.1-0.5,2.1-1,3.2-1.7c1.1-0.7,2.2-1.4,3.3-2.1c1.7-1.1,3.1-2.8,4.6-4.3c0.5-0.5,1-0.9,1.6-1.4
	c1.4-1.3,2.4-3.1,3.3-4.8c0.2-0.4,0.6-0.8,0.8-1.2c0.6-0.8,1.2-1.6,1.7-2.5c0.7-1.3,1.4-2.8,1.9-4.2c0.5-1.4,1.1-2.9,1.4-4.4
	c0.3-1.7,0.6-3,0.8-4.9c0.2-2,0-3.8,0-5.8c0-1,0.1-2,0.1-3c0-0.9-0.6-1.6-0.7-2.4c-0.1-0.9,0-1.9-0.2-2.9c-0.4-2-1.2-3.8-1.9-5.7
	c-0.5-1.3-1.2-2.8-2.1-3.9c-0.8-1.1-1.3-2.4-2.2-3.5c-0.8-1-1.7-2-2.6-3c-0.6-0.7-1.4-1.3-2.1-1.9c-0.7-0.6-1.4-1.3-2.1-2
	c-2.3-2.1-4.5-3.9-7.1-5.5c-1.2-0.7-2.4-1.2-3.6-1.6c-2.5-0.9-5.1-1.8-7.8-2.3c-2-0.3-3.9-0.5-6-0.6c-3.7-0.2-7.8,0.3-11.4,1.2
	c-3.8,0.9-7.5,2.2-10.7,4.6c-1.4,1.1-3.1,1.8-4.5,2.9c-1.3,1-2.4,2.4-3.6,3.6c-0.8,0.7-1.4,1.4-2,2.3c-0.6,0.8-1.2,1.7-1.8,2.5
	c-0.6,0.9-1,1.8-1.6,2.6c-0.9,1.4-1.3,2.7-1.8,4.2c-0.7,2-1.5,4-2.1,6.1c-1.3,4.2-1.2,8.9-0.8,13.2c0.2,1.9,0.5,3.8,0.8,5.7
	c0.1,0.7,0.2,1.4,0.4,2.1c0.3,0.7,0.4,1.5,0.7,2.2c0.7,1.7,1.7,3.3,2.4,5c0.5,1.1,1.1,2.1,1.8,3c0.4,0.6,0.6,1.4,1,2
	c0.4,0.6,1.1,1.2,1.7,1.7c0.4,0.4,0.8,0.7,1.1,1.1c0.6,0.8,1.4,1.4,1.9,2.1c0.6,0.8,1.6,1.3,2.4,2c0.4,0.3,0.6,0.8,1,1.1
	c0.3,0.3,0.7,0.5,1.1,0.8C102.5,138.9,104.3,139.6,105.8,140.4z"/>
<path class="st1" d="M181.3,51.4c0.5,0.3,1,0.4,1.5,0.6c0.9,0.4,1.9,0.6,2.8,0.8c1.1,0.2,2.1,0.1,3.2,0.2c1.1,0.1,2-0.1,3-0.3
	c1-0.1,2.1-0.6,3-1c0.4-0.2,0.8-0.4,1.2-0.7c0.4-0.3,0.9-0.5,1.3-0.8c0.7-0.4,1.2-1.1,1.8-1.7c0.2-0.2,0.4-0.4,0.6-0.6
	c0.5-0.5,1-1.2,1.3-1.9c0.1-0.2,0.2-0.3,0.3-0.5c0.2-0.3,0.5-0.6,0.7-1c0.3-0.5,0.6-1.1,0.7-1.6c0.2-0.6,0.4-1.2,0.5-1.7
	c0.1-0.7,0.3-1.3,0.3-1.9c0.1-0.8,0-1.5,0-2.3c0-0.4,0-0.8,0-1.2c0-0.3-0.2-0.6-0.3-1c0-0.4,0-0.7-0.1-1.1c-0.2-0.8-0.5-1.5-0.7-2.2
	c-0.2-0.5-0.5-1.1-0.8-1.5c-0.3-0.4-0.4-1-0.8-1.4c-0.3-0.4-0.7-0.8-1-1.2c-0.2-0.3-0.5-0.5-0.8-0.7c-0.3-0.2-0.5-0.5-0.8-0.8
	c-1.2-1.2-1.9-1.6-2.8-2.1c-0.5-0.3-1-0.4-1.5-0.6c-1-0.4-2-0.7-3-0.9c-0.8-0.1-1.5-0.2-2.3-0.3c-1.5-0.1-3,0.1-4.5,0.5
	c-1.5,0.3-2.9,0.9-4.2,1.8c-0.6,0.4-1.2,0.7-1.7,1.1c-0.5,0.4-0.9,1-1.4,1.4c-0.3,0.3-0.5,0.6-0.8,0.9c-0.2,0.3-0.5,0.6-0.7,1
	c-0.2,0.3-0.4,0.7-0.6,1c-0.4,0.5-0.5,1-0.7,1.7c-0.3,0.8-0.6,1.6-0.8,2.4c-0.5,1.6-0.5,3.5-0.3,5.2c0.1,0.8,0.2,1.5,0.3,2.2
	c0,0.3,0.1,0.6,0.2,0.8c0.1,0.3,0.2,0.6,0.3,0.8c0.3,0.7,0.6,1.3,0.9,2c0.2,0.4,0.4,0.8,0.7,1.2c0.2,0.2,0.2,0.5,0.4,0.8
	c0.2,0.2,0.4,0.5,0.7,0.7c0.1,0.1,0.3,0.3,0.4,0.4c0.2,0.3,0.5,0.5,0.8,0.8c0.3,0.3,0.6,0.5,0.9,0.8c0.2,0.1,0.3,0.3,0.4,0.4
	c0.1,0.1,0.3,0.2,0.4,0.3C180,50.8,180.7,51.1,181.3,51.4z"/>
</svg>
