<?xml version="1.0" encoding="UTF-8" standalone="no"?>
<!-- Created with Inkscape (http://www.inkscape.org/) -->

<svg
   xmlns:dc="http://purl.org/dc/elements/1.1/"
   xmlns:cc="http://creativecommons.org/ns#"
   xmlns:rdf="http://www.w3.org/1999/02/22-rdf-syntax-ns#"
   xmlns:svg="http://www.w3.org/2000/svg"
   xmlns="http://www.w3.org/2000/svg"
   xmlns:sodipodi="http://sodipodi.sourceforge.net/DTD/sodipodi-0.dtd"
   xmlns:inkscape="http://www.inkscape.org/namespaces/inkscape"
   width="29.579098cm"
   height="14.437723cm"
   viewBox="0 0 295.79098 144.37721"
   version="1.1"
   id="svg8"
   inkscape:version="0.92.2 (5c3e80d, 2017-08-06)"
   sodipodi:docname="type-logo.plain.svg">
  <defs
     id="defs2">
    <filter
       style="color-interpolation-filters:sRGB"
       inkscape:label="Drop Shadow"
       id="filter4805">
      <feFlood
         flood-opacity="0.580392"
         flood-color="rgb(0,0,0)"
         result="flood"
         id="feFlood4795" />
      <feComposite
         in="flood"
         in2="SourceGraphic"
         operator="in"
         result="composite1"
         id="feComposite4797" />
      <feGaussianBlur
         in="composite1"
         stdDeviation="1"
         result="blur"
         id="feGaussianBlur4799" />
      <feOffset
         dx="1"
         dy="1"
         result="offset"
         id="feOffset4801" />
      <feComposite
         in="SourceGraphic"
         in2="offset"
         operator="over"
         result="composite2"
         id="feComposite4803" />
    </filter>
    <filter
       style="color-interpolation-filters:sRGB"
       inkscape:label="Drop Shadow"
       id="filter4817">
      <feFlood
         flood-opacity="0.580392"
         flood-color="rgb(0,0,0)"
         result="flood"
         id="feFlood4807" />
      <feComposite
         in="flood"
         in2="SourceGraphic"
         operator="in"
         result="composite1"
         id="feComposite4809" />
      <feGaussianBlur
         in="composite1"
         stdDeviation="1"
         result="blur"
         id="feGaussianBlur4811" />
      <feOffset
         dx="1"
         dy="1"
         result="offset"
         id="feOffset4813" />
      <feComposite
         in="SourceGraphic"
         in2="offset"
         operator="over"
         result="composite2"
         id="feComposite4815" />
    </filter>
    <filter
       style="color-interpolation-filters:sRGB"
       inkscape:label="Drop Shadow"
       id="filter4829">
      <feFlood
         flood-opacity="0.580392"
         flood-color="rgb(0,0,0)"
         result="flood"
         id="feFlood4819" />
      <feComposite
         in="flood"
         in2="SourceGraphic"
         operator="in"
         result="composite1"
         id="feComposite4821" />
      <feGaussianBlur
         in="composite1"
         stdDeviation="1"
         result="blur"
         id="feGaussianBlur4823" />
      <feOffset
         dx="1"
         dy="1"
         result="offset"
         id="feOffset4825" />
      <feComposite
         in="SourceGraphic"
         in2="offset"
         operator="over"
         result="composite2"
         id="feComposite4827" />
    </filter>
    <filter
       style="color-interpolation-filters:sRGB"
       inkscape:label="Drop Shadow"
       id="filter4841">
      <feFlood
         flood-opacity="0.580392"
         flood-color="rgb(0,0,0)"
         result="flood"
         id="feFlood4831" />
      <feComposite
         in="flood"
         in2="SourceGraphic"
         operator="in"
         result="composite1"
         id="feComposite4833" />
      <feGaussianBlur
         in="composite1"
         stdDeviation="1"
         result="blur"
         id="feGaussianBlur4835" />
      <feOffset
         dx="1"
         dy="1"
         result="offset"
         id="feOffset4837" />
      <feComposite
         in="SourceGraphic"
         in2="offset"
         operator="over"
         result="composite2"
         id="feComposite4839" />
    </filter>
    <filter
       style="color-interpolation-filters:sRGB"
       inkscape:label="Drop Shadow"
       id="filter4853">
      <feFlood
         flood-opacity="0.580392"
         flood-color="rgb(0,0,0)"
         result="flood"
         id="feFlood4843" />
      <feComposite
         in="flood"
         in2="SourceGraphic"
         operator="in"
         result="composite1"
         id="feComposite4845" />
      <feGaussianBlur
         in="composite1"
         stdDeviation="1"
         result="blur"
         id="feGaussianBlur4847" />
      <feOffset
         dx="1"
         dy="1"
         result="offset"
         id="feOffset4849" />
      <feComposite
         in="SourceGraphic"
         in2="offset"
         operator="over"
         result="composite2"
         id="feComposite4851" />
    </filter>
  </defs>
  <sodipodi:namedview
     id="base"
     pagecolor="#ffffff"
     bordercolor="#666666"
     borderopacity="1.0"
     inkscape:pageopacity="0.0"
     inkscape:pageshadow="2"
     inkscape:zoom="0.7"
     inkscape:cx="398.5867"
     inkscape:cy="276.18147"
     inkscape:document-units="mm"
     inkscape:current-layer="layer1"
     showgrid="false"
     units="cm"
     fit-margin-top="1"
     fit-margin-left="1"
     fit-margin-bottom="1"
     fit-margin-right="1"
     inkscape:window-width="1280"
     inkscape:window-height="960"
     inkscape:window-x="0"
     inkscape:window-y="27"
     inkscape:window-maximized="1"
     scale-x="0.5"
     showborder="true"
     inkscape:pagecheckerboard="true" />
  <metadata
     id="metadata5">
    <rdf:RDF>
      <cc:Work
         rdf:about="">
        <dc:format>image/svg+xml</dc:format>
        <dc:type
           rdf:resource="http://purl.org/dc/dcmitype/StillImage" />
        <dc:title></dc:title>
      </cc:Work>
    </rdf:RDF>
  </metadata>
  <g
     inkscape:label="Layer 1"
     inkscape:groupmode="layer"
     id="layer1"
     transform="translate(22.669262,-22.755386)">
    <path
       sodipodi:type="star"
       style="display:inline;fill:none;fill-opacity:1;stroke:#88aa00;stroke-width:16.80342293;stroke-miterlimit:4;stroke-dasharray:none;stroke-opacity:0.82509508;filter:url(#filter4853)"
       id="path4662-9-1"
       sodipodi:sides="6"
       sodipodi:cx="9.3752975"
       sodipodi:cy="111.9113"
       sodipodi:r1="44.678761"
       sodipodi:r2="38.692944"
       sodipodi:arg1="0.60638289"
       sodipodi:arg2="1.1299817"
       inkscape:flatsided="true"
       inkscape:rounded="0"
       inkscape:randomized="0"
       d="M 46.088495,137.37368 5.6808291,156.43705 -31.032369,130.97467 -27.3379,86.448921 13.069766,67.385549 49.782964,92.847928 Z"
       transform="matrix(0.44296337,0.71394975,-0.7530046,0.46719457,130.74819,36.04846)" />
    <path
       sodipodi:type="star"
       style="display:inline;fill:none;fill-opacity:1;stroke:#445016;stroke-width:16.80342293;stroke-miterlimit:4;stroke-dasharray:none;stroke-opacity:1;filter:url(#filter4841)"
       id="path4662-9"
       sodipodi:sides="6"
       sodipodi:cx="9.3752975"
       sodipodi:cy="111.9113"
       sodipodi:r1="44.678761"
       sodipodi:r2="38.692944"
       sodipodi:arg1="0.60638289"
       sodipodi:arg2="1.1299817"
       inkscape:flatsided="true"
       inkscape:rounded="0"
       inkscape:randomized="0"
       d="M 46.088495,137.37368 5.6808291,156.43705 -31.032369,130.97467 -27.3379,86.448921 13.069766,67.385549 49.782964,92.847928 Z"
       transform="matrix(0.58272699,0.60528509,-0.63839571,0.61460361,115.67722,20.488184)" />
    <g
       aria-label="Tyler
"
       style="font-style:normal;font-variant:normal;font-weight:normal;font-stretch:normal;font-size:46.98036957px;line-height:1.25;font-family:Teko;-inkscape-font-specification:Teko;letter-spacing:0px;word-spacing:0px;fill:#000000;fill-opacity:1;stroke:#ffffff;stroke-width:1.17450917;stroke-opacity:1;filter:url(#filter4829)"
       id="text3701">
      <path
         d="M 31.958896,59.076586 H 17.864785 v 3.429567 h 4.932938 v 25.980145 h 4.228234 V 62.506153 h 4.932939 z"
         style="font-style:normal;font-variant:normal;font-weight:normal;font-stretch:normal;font-family:Teko;-inkscape-font-specification:Teko;fill:#668000;stroke:#ffffff;stroke-width:1.17450917;stroke-opacity:1"
         id="path5538"
         inkscape:connector-curvature="0" />
      <path
         d="m 32.595333,65.559877 4.791998,22.550578 h 2.302038 l -0.469804,1.926195 c -0.328862,1.26847 -1.174509,1.550352 -2.442979,1.550352 h -1.926195 v 3.382587 h 2.818822 c 3.100704,0 4.745017,-1.503372 5.402742,-4.275214 L 47.910933,65.559877 H 43.63572 L 40.394074,84.774848 36.917527,65.559877 Z"
         style="font-style:normal;font-variant:normal;font-weight:normal;font-stretch:normal;font-family:Teko;-inkscape-font-specification:Teko;fill:#668000;stroke:#ffffff;stroke-width:1.17450917;stroke-opacity:1"
         id="path5540"
         inkscape:connector-curvature="0" />
      <path
         d="M 54.572603,88.486298 V 57.05643 h -4.228234 v 31.429868 z"
         style="font-style:normal;font-variant:normal;font-weight:normal;font-stretch:normal;font-family:Teko;-inkscape-font-specification:Teko;stroke:#ffffff;stroke-width:1.17450917;stroke-opacity:1"
         id="path5542"
         inkscape:connector-curvature="0" />
      <path
         d="m 62.734706,75.237833 v -4.979919 c 0,-1.080548 0.281883,-1.362431 1.409411,-1.362431 h 2.302039 c 1.127528,0 1.36243,0.281883 1.36243,1.362431 v 4.979919 z m 0.234902,-9.677956 c -3.006743,0 -4.369174,1.456392 -4.369174,4.181253 v 14.610895 c 0,2.677881 1.362431,4.134273 4.369174,4.134273 h 4.510116 c 3.006743,0 4.369174,-1.456392 4.369174,-4.134273 v -2.48996 h -4.134272 v 1.879215 c 0,1.127529 -0.281883,1.409411 -1.409412,1.409411 h -2.161097 c -1.127528,0 -1.409411,-0.281882 -1.409411,-1.36243 v -5.449723 h 9.255133 V 69.74113 c 0,-2.724861 -1.362431,-4.181253 -4.416155,-4.181253 z"
         style="font-style:normal;font-variant:normal;font-weight:normal;font-stretch:normal;font-family:Teko;-inkscape-font-specification:Teko;stroke:#ffffff;stroke-width:1.17450917;stroke-opacity:1"
         id="path5544"
         inkscape:connector-curvature="0" />
      <path
         d="m 83.517649,65.512897 c -2.020156,0 -3.241646,1.362431 -3.71145,2.865802 v -2.818822 h -4.228233 v 22.926421 h 4.228233 V 72.653913 c 0,-2.349018 0.939608,-3.476547 2.959764,-3.476547 h 1.691293 v -3.664469 z"
         style="font-style:normal;font-variant:normal;font-weight:normal;font-stretch:normal;font-family:Teko;-inkscape-font-specification:Teko;stroke:#ffffff;stroke-width:1.17450917;stroke-opacity:1"
         id="path5546"
         inkscape:connector-curvature="0" />
    </g>
    <g
       aria-label="Peckenpaugh"
       style="font-style:normal;font-variant:normal;font-weight:normal;font-stretch:normal;font-size:50.9858551px;line-height:1.25;font-family:Teko;-inkscape-font-specification:Teko;letter-spacing:0px;word-spacing:0px;fill:#000000;fill-opacity:1;stroke:#ffffff;stroke-width:1.27464652;stroke-opacity:1;filter:url(#filter4817)"
       id="text3707">
      <path
         d="m 55.825548,102.357 c 0,1.22366 -0.305915,1.52957 -1.529576,1.52957 H 49.809217 V 91.700956 h 4.486755 c 1.223661,0 1.529576,0.254929 1.529576,1.478589 z M 45.22049,87.978988 v 31.917142 h 4.588727 v -12.33857 h 5.863373 c 3.314081,0 4.741685,-1.52958 4.741685,-4.48676 V 92.465743 c 0,-2.906193 -1.427604,-4.486755 -4.741685,-4.486755 z"
         style="font-style:normal;font-variant:normal;font-weight:normal;font-stretch:normal;font-family:Teko;-inkscape-font-specification:Teko;fill:#668000;stroke:#ffffff;stroke-width:1.27464652;stroke-opacity:1"
         id="path5515"
         inkscape:connector-curvature="0" />
      <path
         d="m 68.516246,105.51812 v -5.4045 c 0,-1.172673 0.305915,-1.478588 1.529575,-1.478588 h 2.498307 c 1.223661,0 1.47859,0.305915 1.47859,1.478588 v 5.4045 z m 0.254929,-10.503084 c -3.263095,0 -4.741685,1.580562 -4.741685,4.537741 v 15.856603 c 0,2.90619 1.47859,4.48675 4.741685,4.48675 h 4.894642 c 3.263095,0 4.741684,-1.58056 4.741684,-4.48675 v -2.70225 h -4.486755 v 2.03943 c 0,1.22366 -0.305915,1.52958 -1.529575,1.52958 h -2.34535 c -1.22366,0 -1.529575,-0.30592 -1.529575,-1.47859 v -5.91436 h 10.044213 v -9.330413 c 0,-2.957179 -1.47859,-4.537741 -4.79267,-4.537741 z"
         style="font-style:normal;font-variant:normal;font-weight:normal;font-stretch:normal;font-family:Teko;-inkscape-font-specification:Teko;fill:#668000;stroke:#ffffff;stroke-width:1.27464652;stroke-opacity:1"
         id="path5517"
         inkscape:connector-curvature="0" />
      <path
         d="m 96.526598,102.86686 v -3.314083 c 0,-2.957179 -1.47859,-4.537741 -4.79267,-4.537741 h -4.843657 c -3.263094,0 -4.741684,1.580562 -4.741684,4.537741 v 15.856603 c 0,2.90619 1.47859,4.48675 4.741684,4.48675 h 4.843657 c 3.31408,0 4.79267,-1.58056 4.79267,-4.48675 v -3.36507 h -4.537741 v 2.65127 c 0,1.22366 -0.305915,1.47859 -1.529576,1.47859 H 88.26689 c -1.223661,0 -1.529576,-0.25493 -1.529576,-1.47859 v -14.47999 c 0,-1.223657 0.305915,-1.478586 1.529576,-1.478586 h 2.192391 c 1.223661,0 1.529576,0.254929 1.529576,1.478586 v 2.65127 z"
         style="font-style:normal;font-variant:normal;font-weight:normal;font-stretch:normal;font-family:Teko;-inkscape-font-specification:Teko;stroke:#ffffff;stroke-width:1.27464652;stroke-opacity:1"
         id="path5519"
         inkscape:connector-curvature="0" />
      <path
         d="m 100.37922,119.89613 h 4.58873 V 85.786596 h -4.58873 z m 15.80561,-24.881094 h -4.89464 l -5.50647,11.879704 5.50647,13.00139 h 4.89464 l -5.71041,-13.00139 z"
         style="font-style:normal;font-variant:normal;font-weight:normal;font-stretch:normal;font-family:Teko;-inkscape-font-specification:Teko;stroke:#ffffff;stroke-width:1.27464652;stroke-opacity:1"
         id="path5521"
         inkscape:connector-curvature="0" />
      <path
         d="m 122.98746,105.51812 v -5.4045 c 0,-1.172673 0.30592,-1.478588 1.52958,-1.478588 h 2.49831 c 1.22366,0 1.47859,0.305915 1.47859,1.478588 v 5.4045 z m 0.25493,-10.503084 c -3.26309,0 -4.74168,1.580562 -4.74168,4.537741 v 15.856603 c 0,2.90619 1.47859,4.48675 4.74168,4.48675 h 4.89465 c 3.26309,0 4.74168,-1.58056 4.74168,-4.48675 v -2.70225 h -4.48676 v 2.03943 c 0,1.22366 -0.30591,1.52958 -1.52957,1.52958 h -2.34535 c -1.22366,0 -1.52958,-0.30592 -1.52958,-1.47859 v -5.91436 h 10.04422 v -9.330413 c 0,-2.957179 -1.47859,-4.537741 -4.79267,-4.537741 z"
         style="font-style:normal;font-variant:normal;font-weight:normal;font-stretch:normal;font-family:Teko;-inkscape-font-specification:Teko;stroke:#ffffff;stroke-width:1.27464652;stroke-opacity:1"
         id="path5523"
         inkscape:connector-curvature="0" />
      <path
         d="m 144.67557,95.015036 c -1.58057,0 -2.70225,0.61183 -3.16113,1.988448 v -1.988448 h -4.58872 v 24.881094 h 4.58872 v -19.37462 c 0,-1.325634 0.50986,-1.784506 1.68254,-1.784506 h 1.7845 c 1.22366,0 1.52958,0.254929 1.52958,1.478586 v 19.68054 h 4.58872 V 99.552777 c 0,-2.957179 -1.47859,-4.537741 -4.63971,-4.537741 z"
         style="font-style:normal;font-variant:normal;font-weight:normal;font-stretch:normal;font-family:Teko;-inkscape-font-specification:Teko;stroke:#ffffff;stroke-width:1.27464652;stroke-opacity:1"
         id="path5525"
         inkscape:connector-curvature="0" />
      <path
         d="m 165.13285,114.69558 c 0,1.22366 -0.30592,1.47859 -1.52958,1.47859 h -1.78451 c -1.17267,0 -1.68253,-0.45888 -1.68253,-1.78451 v -13.86815 c 0,-1.325634 0.50986,-1.784506 1.68253,-1.784506 h 1.78451 c 1.22366,0 1.52958,0.254929 1.52958,1.478586 z m -1.8355,-19.680544 c -1.58056,0 -2.70225,0.61183 -3.16112,1.988448 v -1.988448 h -4.58873 v 31.917144 h 4.58873 v -9.02449 c 0.45887,1.37661 1.58056,1.98844 3.16112,1.98844 h 1.78451 c 3.16112,0 4.63971,-1.58056 4.63971,-4.48675 V 99.552777 c 0,-2.957179 -1.47859,-4.537741 -4.63971,-4.537741 z"
         style="font-style:normal;font-variant:normal;font-weight:normal;font-stretch:normal;font-family:Teko;-inkscape-font-specification:Teko;stroke:#ffffff;stroke-width:1.27464652;stroke-opacity:1"
         id="path5527"
         inkscape:connector-curvature="0" />
      <path
         d="m 179.68294,116.17417 c -1.22366,0 -1.52957,-0.25493 -1.52957,-1.47859 v -14.47999 c 0,-1.223657 0.30591,-1.478586 1.52957,-1.478586 h 1.78451 c 1.17267,0 1.68253,0.458872 1.68253,1.784506 v 13.86815 c 0,1.32563 -0.50986,1.78451 -1.68253,1.78451 z m 3.46704,-21.159134 v 1.988448 c -0.45887,-1.376618 -1.58056,-1.988448 -3.16112,-1.988448 h -1.83549 c -3.16113,0 -4.58873,1.580562 -4.58873,4.537741 v 15.856603 c 0,2.90619 1.4276,4.48675 4.58873,4.48675 h 1.83549 c 1.58056,0 2.70225,-0.61183 3.16112,-1.98844 v 1.98844 h 4.58873 V 95.015036 Z"
         style="font-style:normal;font-variant:normal;font-weight:normal;font-stretch:normal;font-family:Teko;-inkscape-font-specification:Teko;stroke:#ffffff;stroke-width:1.27464652;stroke-opacity:1"
         id="path5529"
         inkscape:connector-curvature="0" />
      <path
         d="m 201.72794,95.015036 v 19.374624 c 0,1.32563 -0.50986,1.78451 -1.68253,1.78451 h -1.78451 c -1.22366,0 -1.52957,-0.25493 -1.52957,-1.47859 V 95.015036 h -4.58873 v 20.394344 c 0,2.90619 1.4276,4.48675 4.58873,4.48675 h 1.83549 c 1.58056,0 2.70225,-0.61183 3.16112,-1.98844 v 1.98844 h 4.58873 V 95.015036 Z"
         style="font-style:normal;font-variant:normal;font-weight:normal;font-stretch:normal;font-family:Teko;-inkscape-font-specification:Teko;stroke:#ffffff;stroke-width:1.27464652;stroke-opacity:1"
         id="path5531"
         inkscape:connector-curvature="0" />
      <path
         d="m 216.62777,115.86825 c -1.22366,0 -1.52958,-0.30591 -1.52958,-1.47859 v -14.17407 c 0,-1.223657 0.30592,-1.478586 1.52958,-1.478586 h 1.7845 c 1.17268,0 1.68254,0.458872 1.68254,1.784506 v 13.56224 c 0,1.32563 -0.50986,1.7845 -1.68254,1.7845 z m 3.46704,-20.853214 v 1.988448 c -0.45888,-1.376618 -1.58057,-1.988448 -3.16113,-1.988448 h -1.83549 c -3.16112,0 -4.58873,1.580562 -4.58873,4.537741 v 15.499703 c 0,2.95718 1.42761,4.53774 4.58873,4.53774 h 1.83549 c 1.58056,0 2.70225,-0.61183 3.16113,-1.98845 v 4.23183 c 0,1.17267 -0.30592,1.47859 -1.52958,1.47859 h -7.18901 v 3.61999 h 8.51464 c 3.31408,0 4.79267,-1.52957 4.79267,-4.48675 V 95.015036 Z"
         style="font-style:normal;font-variant:normal;font-weight:normal;font-stretch:normal;font-family:Teko;-inkscape-font-specification:Teko;stroke:#ffffff;stroke-width:1.27464652;stroke-opacity:1"
         id="path5533"
         inkscape:connector-curvature="0" />
      <path
         d="m 236.88827,95.015036 c -1.58056,0 -2.70225,0.61183 -3.16112,1.988448 V 85.786596 h -4.58873 v 34.109534 h 4.58873 v -19.37462 c 0,-1.325634 0.50986,-1.784506 1.68253,-1.784506 h 1.78451 c 1.22366,0 1.52957,0.254929 1.52957,1.478586 v 19.68054 h 4.58873 V 99.552777 c 0,-2.957179 -1.47859,-4.537741 -4.63971,-4.537741 z"
         style="font-style:normal;font-variant:normal;font-weight:normal;font-stretch:normal;font-family:Teko;-inkscape-font-specification:Teko;stroke:#ffffff;stroke-width:1.27464652;stroke-opacity:1"
         id="path5535"
         inkscape:connector-curvature="0" />
    </g>
    <g
       aria-label="Language as data. Data as meaning."
       style="font-style:normal;font-variant:normal;font-weight:normal;font-stretch:normal;font-size:9.79150486px;line-height:1.25;font-family:Antonio;-inkscape-font-specification:Antonio;letter-spacing:0px;word-spacing:0px;fill:#88aa00;fill-opacity:1;stroke:#000000;stroke-width:0.155;stroke-miterlimit:4;stroke-dasharray:none;stroke-opacity:1;filter:url(#filter4805)"
       id="text30">
      <path
         d="m 101.77218,129.28693 h 0.98967 v 7.59703 h 1.55383 v 0.81755 h -2.5435 z"
         style="font-style:normal;font-variant:normal;font-weight:normal;font-stretch:normal;font-family:Antonio;-inkscape-font-specification:Antonio;fill:#88aa00;stroke:#000000;stroke-width:0.155;stroke-miterlimit:4;stroke-dasharray:none;stroke-opacity:1"
         id="path5456"
         inkscape:connector-curvature="0" />
      <path
         d="m 107.28947,133.74761 q -0.60241,0.27252 -0.80321,0.42073 -0.20081,0.14821 -0.30599,0.34902 -0.1004,0.19602 -0.1004,0.65021 v 0.66456 q 0,0.62632 0.10996,0.88449 0.10997,0.25339 0.3777,0.25339 0.26774,0 0.45898,-0.15299 0.19124,-0.15777 0.26296,-0.33945 z m -2.10843,-1.14266 q 0,-1.30043 0.40639,-1.73072 0.40638,-0.43029 1.157,-0.43029 0.75062,0 1.08529,0.36335 0.33945,0.36336 0.41595,1.16657 0.0335,0.34423 0.0335,0.84624 v 4.88141 h -0.98488 v -0.62153 q -0.0765,0.25817 -0.33467,0.47332 -0.25818,0.21036 -0.64066,0.21036 -1.21916,0 -1.22872,-1.90284 v -0.69803 q 0,-0.61675 0.33467,-1.05182 0.33945,-0.43985 1.8646,-0.99923 v -0.5546 q 0,-0.92273 -0.13387,-1.10919 -0.13387,-0.18646 -0.45898,-0.18646 -0.32033,0 -0.43029,0.28208 -0.10996,0.28208 -0.10996,1.01835 v 0.24862 h -0.97533 z"
         style="font-style:normal;font-variant:normal;font-weight:normal;font-stretch:normal;font-family:Antonio;-inkscape-font-specification:Antonio;fill:#88aa00;stroke:#000000;stroke-width:0.155;stroke-miterlimit:4;stroke-dasharray:none;stroke-opacity:1"
         id="path5458"
         inkscape:connector-curvature="0" />
      <path
         d="m 110.60749,131.29018 q 0.0956,-0.34902 0.41594,-0.59763 0.32511,-0.25339 0.80321,-0.25339 0.48288,0 0.77931,0.39204 0.3012,0.38726 0.3012,1.15222 v 5.71809 h -0.98011 v -5.71331 q 0,-0.36335 -0.16733,-0.54503 -0.16734,-0.18168 -0.46376,-0.18168 -0.29642,0 -0.49244,0.20558 -0.19602,0.20559 -0.19602,0.61675 v 5.61769 h -0.98011 V 130.53 h 0.98011 z"
         style="font-style:normal;font-variant:normal;font-weight:normal;font-stretch:normal;font-family:Antonio;-inkscape-font-specification:Antonio;fill:#88aa00;stroke:#000000;stroke-width:0.155;stroke-miterlimit:4;stroke-dasharray:none;stroke-opacity:1"
         id="path5460"
         inkscape:connector-curvature="0" />
      <path
         d="m 115.48411,130.44394 q 0.67413,0 0.87493,0.61197 V 130.53 h 0.98011 v 6.50217 q 0,1.28131 -0.96577,1.63988 -0.33467,0.12431 -0.77452,0.12431 -0.87971,0 -1.45821,-0.45898 l 0.3538,-0.66934 q 0.52113,0.3538 1.10441,0.3538 0.38726,0 0.57372,-0.24384 0.18646,-0.24383 0.18646,-0.65499 v -0.68369 q -0.12909,0.33467 -0.35858,0.46376 -0.23905,0.12909 -0.59284,0.12909 -0.71715,0 -0.98489,-0.60719 -0.26774,-0.60719 -0.26774,-1.63033 v -2.05583 q 0,-2.29488 1.32912,-2.29488 z m 0.87493,2.15145 q 0,-0.69803 -0.12909,-1.01357 -0.12431,-0.32033 -0.44463,-0.32033 -0.31555,0 -0.44464,0.18168 -0.12908,0.18168 -0.16733,0.45419 -0.0335,0.27252 -0.0335,0.68847 v 2.23273 q 0,0.76018 0.13865,1.09963 0.13865,0.33467 0.52113,0.33467 0.2008,0 0.31555,-0.11474 0.23905,-0.23427 0.24383,-1.32912 z"
         style="font-style:normal;font-variant:normal;font-weight:normal;font-stretch:normal;font-family:Antonio;-inkscape-font-specification:Antonio;fill:#88aa00;stroke:#000000;stroke-width:0.155;stroke-miterlimit:4;stroke-dasharray:none;stroke-opacity:1"
         id="path5462"
         inkscape:connector-curvature="0" />
      <path
         d="m 120.95359,130.53 h 0.98488 v 7.17151 h -0.98488 v -0.7315 q -0.11475,0.36336 -0.39683,0.59763 -0.2773,0.22949 -0.75062,0.22949 -0.46853,0 -0.80799,-0.38726 -0.33467,-0.39205 -0.33467,-1.20004 V 130.53 h 0.98011 v 5.56987 q 0,0.84624 0.61675,0.84624 0.34423,0 0.51635,-0.23905 0.1769,-0.23905 0.1769,-0.6311 z"
         style="font-style:normal;font-variant:normal;font-weight:normal;font-stretch:normal;font-family:Antonio;-inkscape-font-specification:Antonio;fill:#88aa00;stroke:#000000;stroke-width:0.155;stroke-miterlimit:4;stroke-dasharray:none;stroke-opacity:1"
         id="path5464"
         inkscape:connector-curvature="0" />
      <path
         d="m 125.43817,133.74761 q -0.6024,0.27252 -0.80321,0.42073 -0.2008,0.14821 -0.30598,0.34902 -0.1004,0.19602 -0.1004,0.65021 v 0.66456 q 0,0.62632 0.10996,0.88449 0.10997,0.25339 0.3777,0.25339 0.26774,0 0.45898,-0.15299 0.19124,-0.15777 0.26295,-0.33945 z m -2.10842,-1.14266 q 0,-1.30043 0.40639,-1.73072 0.40638,-0.43029 1.157,-0.43029 0.75062,0 1.08529,0.36335 0.33945,0.36336 0.41595,1.16657 0.0335,0.34423 0.0335,0.84624 v 4.88141 H 125.443 v -0.62153 q -0.0765,0.25817 -0.33468,0.47332 -0.25817,0.21036 -0.64065,0.21036 -1.21916,0 -1.22872,-1.90284 v -0.69803 q 0,-0.61675 0.33467,-1.05182 0.33945,-0.43985 1.86459,-0.99923 v -0.5546 q 0,-0.92273 -0.13386,-1.10919 -0.13387,-0.18646 -0.45898,-0.18646 -0.32033,0 -0.43029,0.28208 -0.10996,0.28208 -0.10996,1.01835 v 0.24862 h -0.97533 z"
         style="font-style:normal;font-variant:normal;font-weight:normal;font-stretch:normal;font-family:Antonio;-inkscape-font-specification:Antonio;fill:#88aa00;stroke:#000000;stroke-width:0.155;stroke-miterlimit:4;stroke-dasharray:none;stroke-opacity:1"
         id="path5466"
         inkscape:connector-curvature="0" />
      <path
         d="m 128.98568,130.44394 q 0.67412,0 0.87493,0.61197 V 130.53 h 0.9801 v 6.50217 q 0,1.28131 -0.96576,1.63988 -0.33467,0.12431 -0.77452,0.12431 -0.87971,0 -1.45821,-0.45898 l 0.35379,-0.66934 q 0.52113,0.3538 1.10442,0.3538 0.38726,0 0.57372,-0.24384 0.18646,-0.24383 0.18646,-0.65499 v -0.68369 q -0.12909,0.33467 -0.35858,0.46376 -0.23905,0.12909 -0.59284,0.12909 -0.71716,0 -0.98489,-0.60719 -0.26774,-0.60719 -0.26774,-1.63033 v -2.05583 q 0,-2.29488 1.32912,-2.29488 z m 0.87493,2.15145 q 0,-0.69803 -0.12909,-1.01357 -0.12431,-0.32033 -0.44463,-0.32033 -0.31555,0 -0.44464,0.18168 -0.12909,0.18168 -0.16733,0.45419 -0.0335,0.27252 -0.0335,0.68847 v 2.23273 q 0,0.76018 0.13865,1.09963 0.13865,0.33467 0.52113,0.33467 0.2008,0 0.31554,-0.11474 0.23906,-0.23427 0.24384,-1.32912 z"
         style="font-style:normal;font-variant:normal;font-weight:normal;font-stretch:normal;font-family:Antonio;-inkscape-font-specification:Antonio;fill:#88aa00;stroke:#000000;stroke-width:0.155;stroke-miterlimit:4;stroke-dasharray:none;stroke-opacity:1"
         id="path5468"
         inkscape:connector-curvature="0" />
      <path
         d="m 132.1029,132.75316 q 0,-1.3578 0.48766,-1.88849 0.38248,-0.42073 1.12832,-0.42073 1.08051,0 1.35781,0.93229 0.15299,0.52591 0.15299,1.41996 v 1.35303 h -2.14189 v 1.42952 q 0,0.9323 0.14821,1.16178 0.14821,0.22949 0.46854,0.22949 0.32032,0 0.42551,-0.26773 0.10996,-0.26774 0.11474,-0.57851 0.005,-0.31554 0.005,-0.53069 v -0.5785 h 0.96098 v 0.30599 q 0,1.14266 -0.16255,1.60163 -0.15777,0.45898 -0.48288,0.66456 -0.32511,0.20081 -0.80799,0.20081 -0.4781,0 -0.76974,-0.11953 -0.28687,-0.12431 -0.45898,-0.32511 -0.16734,-0.2008 -0.29642,-0.64065 -0.12909,-0.43986 -0.12909,-1.41518 z m 2.14667,-0.18167 q 0,-0.76497 -0.0574,-0.92274 -0.0526,-0.15777 -0.13865,-0.2773 -0.0861,-0.11952 -0.31077,-0.11952 -0.43029,0 -0.54503,0.36335 -0.11474,0.35858 -0.11474,0.98967 v 0.87971 h 1.16656 z"
         style="font-style:normal;font-variant:normal;font-weight:normal;font-stretch:normal;font-family:Antonio;-inkscape-font-specification:Antonio;fill:#88aa00;stroke:#000000;stroke-width:0.155;stroke-miterlimit:4;stroke-dasharray:none;stroke-opacity:1"
         id="path5470"
         inkscape:connector-curvature="0" />
      <path
         d="m 140.98601,133.74761 q -0.6024,0.27252 -0.80321,0.42073 -0.2008,0.14821 -0.30598,0.34902 -0.1004,0.19602 -0.1004,0.65021 v 0.66456 q 0,0.62632 0.10996,0.88449 0.10996,0.25339 0.3777,0.25339 0.26774,0 0.45898,-0.15299 0.19124,-0.15777 0.26295,-0.33945 z m -2.10842,-1.14266 q 0,-1.30043 0.40638,-1.73072 0.40639,-0.43029 1.15701,-0.43029 0.75062,0 1.08529,0.36335 0.33945,0.36336 0.41594,1.16657 0.0335,0.34423 0.0335,0.84624 v 4.88141 h -0.98489 v -0.62153 q -0.0765,0.25817 -0.33467,0.47332 -0.25817,0.21036 -0.64065,0.21036 -1.21916,0 -1.22872,-1.90284 v -0.69803 q 0,-0.61675 0.33467,-1.05182 0.33945,-0.43985 1.86459,-0.99923 v -0.5546 q 0,-0.92273 -0.13387,-1.10919 -0.13386,-0.18646 -0.45897,-0.18646 -0.32033,0 -0.43029,0.28208 -0.10997,0.28208 -0.10997,1.01835 v 0.24862 h -0.97532 z"
         style="font-style:normal;font-variant:normal;font-weight:normal;font-stretch:normal;font-family:Antonio;-inkscape-font-specification:Antonio;fill:#88aa00;stroke:#000000;stroke-width:0.155;stroke-miterlimit:4;stroke-dasharray:none;stroke-opacity:1"
         id="path5472"
         inkscape:connector-curvature="0" />
      <path
         d="m 146.18297,136.05684 q -0.005,1.74029 -1.53471,1.74029 -0.77452,0 -1.16178,-0.49245 -0.38726,-0.49244 -0.38726,-1.58251 v -0.54025 h 0.95142 v 0.53547 q 0,1.24306 0.56416,1.24306 0.31076,0 0.44463,-0.2008 0.13865,-0.2008 0.13865,-0.69803 0,-0.7793 -0.71715,-1.48211 -0.0526,-0.0526 -0.24861,-0.23427 -0.19602,-0.18646 -0.25818,-0.24861 -0.93229,-0.88927 -0.93229,-1.965 0,-0.85102 0.4016,-1.26696 0.4016,-0.42073 1.14266,-0.42073 0.50201,0 0.81755,0.20558 0.65978,0.43029 0.65978,2.03193 v 0.34423 h -0.93229 v -0.49722 q 0,-0.62632 -0.12431,-0.9323 -0.11953,-0.31077 -0.41595,-0.31077 -0.29642,0 -0.44463,0.18646 -0.14821,0.18646 -0.14821,0.6311 0,0.69802 0.655,1.34824 l 0.51634,0.48288 q 1.01358,0.97055 1.01358,2.12277 z"
         style="font-style:normal;font-variant:normal;font-weight:normal;font-stretch:normal;font-family:Antonio;-inkscape-font-specification:Antonio;fill:#88aa00;stroke:#000000;stroke-width:0.155;stroke-miterlimit:4;stroke-dasharray:none;stroke-opacity:1"
         id="path5474"
         inkscape:connector-curvature="0" />
      <path
         d="m 151.67635,129.19609 h 0.98488 v 8.50542 h -0.98488 v -0.60241 q -0.26774,0.66456 -0.98967,0.66456 -0.98967,0 -1.16179,-1.30521 -0.0574,-0.43508 -0.0574,-1.05183 v -2.71083 q 0,-1.29565 0.42073,-1.83112 0.33467,-0.42073 0.94664,-0.42073 0.26774,0 0.49244,0.15777 0.22949,0.15777 0.34902,0.40639 z m 0.005,3.48536 q 0,-0.7554 -0.12909,-1.08529 -0.12431,-0.32989 -0.48766,-0.32989 -0.35858,0 -0.48767,0.33467 -0.1243,0.32989 -0.1243,1.10441 v 2.89729 q 0,1.05183 0.2773,1.27175 0.11474,0.0908 0.32511,0.0908 0.21036,0 0.34423,-0.11474 0.28208,-0.23905 0.28208,-1.29087 z"
         style="font-style:normal;font-variant:normal;font-weight:normal;font-stretch:normal;font-family:Antonio;-inkscape-font-specification:Antonio;fill:#88aa00;stroke:#000000;stroke-width:0.155;stroke-miterlimit:4;stroke-dasharray:none;stroke-opacity:1"
         id="path5476"
         inkscape:connector-curvature="0" />
      <path
         d="m 156.17049,133.74761 q -0.6024,0.27252 -0.8032,0.42073 -0.20081,0.14821 -0.30599,0.34902 -0.1004,0.19602 -0.1004,0.65021 v 0.66456 q 0,0.62632 0.10996,0.88449 0.10997,0.25339 0.3777,0.25339 0.26774,0 0.45898,-0.15299 0.19124,-0.15777 0.26295,-0.33945 z m -2.10842,-1.14266 q 0,-1.30043 0.40639,-1.73072 0.40638,-0.43029 1.157,-0.43029 0.75062,0 1.08529,0.36335 0.33945,0.36336 0.41595,1.16657 0.0335,0.34423 0.0335,0.84624 v 4.88141 h -0.98488 v -0.62153 q -0.0765,0.25817 -0.33467,0.47332 -0.25818,0.21036 -0.64066,0.21036 -1.21916,0 -1.22872,-1.90284 v -0.69803 q 0,-0.61675 0.33467,-1.05182 0.33945,-0.43985 1.86459,-0.99923 v -0.5546 q 0,-0.92273 -0.13386,-1.10919 -0.13387,-0.18646 -0.45898,-0.18646 -0.32033,0 -0.43029,0.28208 -0.10996,0.28208 -0.10996,1.01835 v 0.24862 h -0.97533 z"
         style="font-style:normal;font-variant:normal;font-weight:normal;font-stretch:normal;font-family:Antonio;-inkscape-font-specification:Antonio;fill:#88aa00;stroke:#000000;stroke-width:0.155;stroke-miterlimit:4;stroke-dasharray:none;stroke-opacity:1"
         id="path5478"
         inkscape:connector-curvature="0" />
      <path
         d="m 158.68052,129.28693 h 0.98011 v 1.30044 h 0.77452 v 0.72671 h -0.77452 v 5.2352 q 0,0.2773 0.12909,0.34902 0.12908,0.0669 0.655,0.0669 v 0.77931 h -0.67413 q -0.6789,0 -0.88448,-0.24383 -0.20559,-0.24862 -0.20559,-0.86537 v -5.32126 h -0.65499 v -0.72671 h 0.65499 z"
         style="font-style:normal;font-variant:normal;font-weight:normal;font-stretch:normal;font-family:Antonio;-inkscape-font-specification:Antonio;fill:#88aa00;stroke:#000000;stroke-width:0.155;stroke-miterlimit:4;stroke-dasharray:none;stroke-opacity:1"
         id="path5480"
         inkscape:connector-curvature="0" />
      <path
         d="m 163.53325,133.74761 q -0.60241,0.27252 -0.80321,0.42073 -0.20081,0.14821 -0.30599,0.34902 -0.1004,0.19602 -0.1004,0.65021 v 0.66456 q 0,0.62632 0.10996,0.88449 0.10997,0.25339 0.3777,0.25339 0.26774,0 0.45898,-0.15299 0.19124,-0.15777 0.26296,-0.33945 z m -2.10843,-1.14266 q 0,-1.30043 0.40639,-1.73072 0.40638,-0.43029 1.157,-0.43029 0.75062,0 1.08529,0.36335 0.33945,0.36336 0.41595,1.16657 0.0335,0.34423 0.0335,0.84624 v 4.88141 h -0.98488 v -0.62153 q -0.0765,0.25817 -0.33467,0.47332 -0.25818,0.21036 -0.64066,0.21036 -1.21916,0 -1.22872,-1.90284 v -0.69803 q 0,-0.61675 0.33467,-1.05182 0.33945,-0.43985 1.8646,-0.99923 v -0.5546 q 0,-0.92273 -0.13387,-1.10919 -0.13387,-0.18646 -0.45898,-0.18646 -0.32033,0 -0.43029,0.28208 -0.10996,0.28208 -0.10996,1.01835 v 0.24862 h -0.97533 z"
         style="font-style:normal;font-variant:normal;font-weight:normal;font-stretch:normal;font-family:Antonio;-inkscape-font-specification:Antonio;fill:#88aa00;stroke:#000000;stroke-width:0.155;stroke-miterlimit:4;stroke-dasharray:none;stroke-opacity:1"
         id="path5482"
         inkscape:connector-curvature="0" />
      <path
         d="m 165.9859,136.75487 h 0.83668 v 0.94664 h -0.83668 z"
         style="font-style:normal;font-variant:normal;font-weight:normal;font-stretch:normal;font-family:Antonio;-inkscape-font-specification:Antonio;fill:#88aa00;stroke:#000000;stroke-width:0.155;stroke-miterlimit:4;stroke-dasharray:none;stroke-opacity:1"
         id="path5484"
         inkscape:connector-curvature="0" />
      <path
         d="m 170.80516,129.28693 h 1.58251 q 0.96577,0 1.32912,0.59763 0.36336,0.59284 0.36336,1.6877 l 0.005,3.69571 q 0,1.29566 -0.39682,1.8646 -0.39683,0.56894 -1.3339,0.56894 h -1.54905 z m 2.2901,2.26142 q 0,-0.78887 -0.18646,-1.1331 -0.18646,-0.34423 -0.61197,-0.34423 h -0.50678 v 6.83206 h 0.50678 q 0.28686,0 0.44942,-0.11475 0.34901,-0.24861 0.34901,-1.36736 z"
         style="font-style:normal;font-variant:normal;font-weight:normal;font-stretch:normal;font-family:Antonio;-inkscape-font-specification:Antonio;fill:#88aa00;stroke:#000000;stroke-width:0.155;stroke-miterlimit:4;stroke-dasharray:none;stroke-opacity:1"
         id="path5486"
         inkscape:connector-curvature="0" />
      <path
         d="m 177.45554,133.74761 q -0.60241,0.27252 -0.80321,0.42073 -0.2008,0.14821 -0.30598,0.34902 -0.1004,0.19602 -0.1004,0.65021 v 0.66456 q 0,0.62632 0.10996,0.88449 0.10996,0.25339 0.3777,0.25339 0.26773,0 0.45898,-0.15299 0.19124,-0.15777 0.26295,-0.33945 z m -2.10842,-1.14266 q 0,-1.30043 0.40638,-1.73072 0.40639,-0.43029 1.15701,-0.43029 0.75061,0 1.08528,0.36335 0.33946,0.36336 0.41595,1.16657 0.0335,0.34423 0.0335,0.84624 v 4.88141 h -0.98489 v -0.62153 q -0.0765,0.25817 -0.33467,0.47332 -0.25817,0.21036 -0.64065,0.21036 -1.21916,0 -1.22872,-1.90284 v -0.69803 q 0,-0.61675 0.33467,-1.05182 0.33945,-0.43985 1.86459,-0.99923 v -0.5546 q 0,-0.92273 -0.13387,-1.10919 -0.13387,-0.18646 -0.45897,-0.18646 -0.32033,0 -0.4303,0.28208 -0.10996,0.28208 -0.10996,1.01835 v 0.24862 h -0.97532 z"
         style="font-style:normal;font-variant:normal;font-weight:normal;font-stretch:normal;font-family:Antonio;-inkscape-font-specification:Antonio;fill:#88aa00;stroke:#000000;stroke-width:0.155;stroke-miterlimit:4;stroke-dasharray:none;stroke-opacity:1"
         id="path5488"
         inkscape:connector-curvature="0" />
      <path
         d="m 179.96557,129.28693 h 0.98011 v 1.30044 h 0.77452 v 0.72671 h -0.77452 v 5.2352 q 0,0.2773 0.12908,0.34902 0.12909,0.0669 0.655,0.0669 v 0.77931 h -0.67412 q -0.6789,0 -0.88449,-0.24383 -0.20558,-0.24862 -0.20558,-0.86537 v -5.32126 h -0.655 v -0.72671 h 0.655 z"
         style="font-style:normal;font-variant:normal;font-weight:normal;font-stretch:normal;font-family:Antonio;-inkscape-font-specification:Antonio;fill:#88aa00;stroke:#000000;stroke-width:0.155;stroke-miterlimit:4;stroke-dasharray:none;stroke-opacity:1"
         id="path5490"
         inkscape:connector-curvature="0" />
      <path
         d="m 184.8183,133.74761 q -0.60241,0.27252 -0.80321,0.42073 -0.20081,0.14821 -0.30599,0.34902 -0.1004,0.19602 -0.1004,0.65021 v 0.66456 q 0,0.62632 0.10996,0.88449 0.10997,0.25339 0.3777,0.25339 0.26774,0 0.45898,-0.15299 0.19124,-0.15777 0.26296,-0.33945 z m -2.10843,-1.14266 q 0,-1.30043 0.40639,-1.73072 0.40638,-0.43029 1.157,-0.43029 0.75062,0 1.08529,0.36335 0.33945,0.36336 0.41595,1.16657 0.0335,0.34423 0.0335,0.84624 v 4.88141 h -0.98488 v -0.62153 q -0.0765,0.25817 -0.33467,0.47332 -0.25818,0.21036 -0.64066,0.21036 -1.21916,0 -1.22872,-1.90284 v -0.69803 q 0,-0.61675 0.33467,-1.05182 0.33945,-0.43985 1.8646,-0.99923 v -0.5546 q 0,-0.92273 -0.13387,-1.10919 -0.13387,-0.18646 -0.45898,-0.18646 -0.32033,0 -0.43029,0.28208 -0.10996,0.28208 -0.10996,1.01835 v 0.24862 h -0.97533 z"
         style="font-style:normal;font-variant:normal;font-weight:normal;font-stretch:normal;font-family:Antonio;-inkscape-font-specification:Antonio;fill:#88aa00;stroke:#000000;stroke-width:0.155;stroke-miterlimit:4;stroke-dasharray:none;stroke-opacity:1"
         id="path5492"
         inkscape:connector-curvature="0" />
      <path
         d="m 191.6647,133.74761 q -0.60241,0.27252 -0.80321,0.42073 -0.2008,0.14821 -0.30598,0.34902 -0.1004,0.19602 -0.1004,0.65021 v 0.66456 q 0,0.62632 0.10996,0.88449 0.10996,0.25339 0.3777,0.25339 0.26773,0 0.45897,-0.15299 0.19125,-0.15777 0.26296,-0.33945 z m -2.10842,-1.14266 q 0,-1.30043 0.40638,-1.73072 0.40639,-0.43029 1.15701,-0.43029 0.75061,0 1.08528,0.36335 0.33946,0.36336 0.41595,1.16657 0.0335,0.34423 0.0335,0.84624 v 4.88141 h -0.98489 v -0.62153 q -0.0765,0.25817 -0.33467,0.47332 -0.25817,0.21036 -0.64065,0.21036 -1.21916,0 -1.22872,-1.90284 v -0.69803 q 0,-0.61675 0.33467,-1.05182 0.33945,-0.43985 1.86459,-0.99923 v -0.5546 q 0,-0.92273 -0.13387,-1.10919 -0.13387,-0.18646 -0.45897,-0.18646 -0.32033,0 -0.4303,0.28208 -0.10996,0.28208 -0.10996,1.01835 v 0.24862 h -0.97532 z"
         style="font-style:normal;font-variant:normal;font-weight:normal;font-stretch:normal;font-family:Antonio;-inkscape-font-specification:Antonio;fill:#88aa00;stroke:#000000;stroke-width:0.155;stroke-miterlimit:4;stroke-dasharray:none;stroke-opacity:1"
         id="path5494"
         inkscape:connector-curvature="0" />
      <path
         d="m 196.86166,136.05684 q -0.005,1.74029 -1.53471,1.74029 -0.77452,0 -1.16178,-0.49245 -0.38726,-0.49244 -0.38726,-1.58251 v -0.54025 h 0.95142 v 0.53547 q 0,1.24306 0.56416,1.24306 0.31076,0 0.44463,-0.2008 0.13865,-0.2008 0.13865,-0.69803 0,-0.7793 -0.71715,-1.48211 -0.0526,-0.0526 -0.24862,-0.23427 -0.19602,-0.18646 -0.25817,-0.24861 -0.9323,-0.88927 -0.9323,-1.965 0,-0.85102 0.40161,-1.26696 0.4016,-0.42073 1.14266,-0.42073 0.502,0 0.81755,0.20558 0.65978,0.43029 0.65978,2.03193 v 0.34423 h -0.9323 v -0.49722 q 0,-0.62632 -0.1243,-0.9323 -0.11953,-0.31077 -0.41595,-0.31077 -0.29642,0 -0.44463,0.18646 -0.14821,0.18646 -0.14821,0.6311 0,0.69802 0.65499,1.34824 l 0.51635,0.48288 q 1.01358,0.97055 1.01358,2.12277 z"
         style="font-style:normal;font-variant:normal;font-weight:normal;font-stretch:normal;font-family:Antonio;-inkscape-font-specification:Antonio;fill:#88aa00;stroke:#000000;stroke-width:0.155;stroke-miterlimit:4;stroke-dasharray:none;stroke-opacity:1"
         id="path5496"
         inkscape:connector-curvature="0" />
      <path
         d="m 201.23627,131.27583 q 0.10041,-0.36335 0.39683,-0.59762 0.29642,-0.23905 0.72193,-0.23905 0.7554,0 1.01357,0.72671 0.18168,-0.33467 0.49245,-0.53069 0.31554,-0.19602 0.72193,-0.19602 0.56894,0 0.86536,0.40638 0.29643,0.40639 0.29643,1.19525 v 5.66072 h -0.98011 v -5.6894 q 0,-0.72672 -0.57372,-0.72672 -0.65022,0 -0.69803,0.66456 v 5.75156 h -0.98489 v -5.69418 q 0,-0.72194 -0.56416,-0.72194 -0.34423,0 -0.52591,0.22471 -0.18168,0.21993 -0.18168,0.60719 v 5.58422 h -0.9801 V 130.53 h 0.9801 z"
         style="font-style:normal;font-variant:normal;font-weight:normal;font-stretch:normal;font-family:Antonio;-inkscape-font-specification:Antonio;fill:#88aa00;stroke:#000000;stroke-width:0.155;stroke-miterlimit:4;stroke-dasharray:none;stroke-opacity:1"
         id="path5498"
         inkscape:connector-curvature="0" />
      <path
         d="m 206.99261,132.75316 q 0,-1.3578 0.48766,-1.88849 0.38248,-0.42073 1.12832,-0.42073 1.08051,0 1.35781,0.93229 0.15299,0.52591 0.15299,1.41996 v 1.35303 h -2.14189 v 1.42952 q 0,0.9323 0.14821,1.16178 0.14821,0.22949 0.46854,0.22949 0.32033,0 0.42551,-0.26773 0.10996,-0.26774 0.11474,-0.57851 0.005,-0.31554 0.005,-0.53069 v -0.5785 h 0.96099 v 0.30599 q 0,1.14266 -0.16256,1.60163 -0.15777,0.45898 -0.48288,0.66456 -0.32511,0.20081 -0.80799,0.20081 -0.4781,0 -0.76974,-0.11953 -0.28686,-0.12431 -0.45898,-0.32511 -0.16734,-0.2008 -0.29642,-0.64065 -0.12909,-0.43986 -0.12909,-1.41518 z m 2.14667,-0.18167 q 0,-0.76497 -0.0574,-0.92274 -0.0526,-0.15777 -0.13865,-0.2773 -0.0861,-0.11952 -0.31076,-0.11952 -0.43029,0 -0.54504,0.36335 -0.11474,0.35858 -0.11474,0.98967 v 0.87971 h 1.16656 z"
         style="font-style:normal;font-variant:normal;font-weight:normal;font-stretch:normal;font-family:Antonio;-inkscape-font-specification:Antonio;fill:#88aa00;stroke:#000000;stroke-width:0.155;stroke-miterlimit:4;stroke-dasharray:none;stroke-opacity:1"
         id="path5500"
         inkscape:connector-curvature="0" />
      <path
         d="m 213.4661,133.74761 q -0.60241,0.27252 -0.80321,0.42073 -0.2008,0.14821 -0.30598,0.34902 -0.10041,0.19602 -0.10041,0.65021 v 0.66456 q 0,0.62632 0.10997,0.88449 0.10996,0.25339 0.3777,0.25339 0.26773,0 0.45897,-0.15299 0.19124,-0.15777 0.26296,-0.33945 z m -2.10843,-1.14266 q 0,-1.30043 0.40639,-1.73072 0.40639,-0.43029 1.157,-0.43029 0.75062,0 1.08529,0.36335 0.33946,0.36336 0.41595,1.16657 0.0335,0.34423 0.0335,0.84624 v 4.88141 h -0.98489 v -0.62153 q -0.0765,0.25817 -0.33467,0.47332 -0.25817,0.21036 -0.64066,0.21036 -1.21915,0 -1.22871,-1.90284 v -0.69803 q 0,-0.61675 0.33467,-1.05182 0.33945,-0.43985 1.86459,-0.99923 v -0.5546 q 0,-0.92273 -0.13387,-1.10919 -0.13387,-0.18646 -0.45898,-0.18646 -0.32032,0 -0.43029,0.28208 -0.10996,0.28208 -0.10996,1.01835 v 0.24862 h -0.97533 z"
         style="font-style:normal;font-variant:normal;font-weight:normal;font-stretch:normal;font-family:Antonio;-inkscape-font-specification:Antonio;fill:#88aa00;stroke:#000000;stroke-width:0.155;stroke-miterlimit:4;stroke-dasharray:none;stroke-opacity:1"
         id="path5502"
         inkscape:connector-curvature="0" />
      <path
         d="m 216.78412,131.29018 q 0.0956,-0.34902 0.41595,-0.59763 0.32511,-0.25339 0.80321,-0.25339 0.48288,0 0.7793,0.39204 0.3012,0.38726 0.3012,1.15222 v 5.71809 h -0.9801 v -5.71331 q 0,-0.36335 -0.16734,-0.54503 -0.16733,-0.18168 -0.46376,-0.18168 -0.29642,0 -0.49244,0.20558 -0.19602,0.20559 -0.19602,0.61675 v 5.61769 h -0.98011 V 130.53 h 0.98011 z"
         style="font-style:normal;font-variant:normal;font-weight:normal;font-stretch:normal;font-family:Antonio;-inkscape-font-specification:Antonio;fill:#88aa00;stroke:#000000;stroke-width:0.155;stroke-miterlimit:4;stroke-dasharray:none;stroke-opacity:1"
         id="path5504"
         inkscape:connector-curvature="0" />
      <path
         d="m 220.4655,130.53 h 0.9801 v 7.17151 h -0.9801 z m 0,-1.55861 h 0.98488 v 0.89883 h -0.98488 z"
         style="font-style:normal;font-variant:normal;font-weight:normal;font-stretch:normal;font-family:Antonio;-inkscape-font-specification:Antonio;fill:#88aa00;stroke:#000000;stroke-width:0.155;stroke-miterlimit:4;stroke-dasharray:none;stroke-opacity:1"
         id="path5506"
         inkscape:connector-curvature="0" />
      <path
         d="m 223.84088,131.29018 q 0.0956,-0.34902 0.41595,-0.59763 0.32511,-0.25339 0.80321,-0.25339 0.48288,0 0.7793,0.39204 0.30121,0.38726 0.30121,1.15222 v 5.71809 h -0.98011 v -5.71331 q 0,-0.36335 -0.16734,-0.54503 -0.16733,-0.18168 -0.46375,-0.18168 -0.29643,0 -0.49245,0.20558 -0.19602,0.20559 -0.19602,0.61675 v 5.61769 h -0.98011 V 130.53 h 0.98011 z"
         style="font-style:normal;font-variant:normal;font-weight:normal;font-stretch:normal;font-family:Antonio;-inkscape-font-specification:Antonio;fill:#88aa00;stroke:#000000;stroke-width:0.155;stroke-miterlimit:4;stroke-dasharray:none;stroke-opacity:1"
         id="path5508"
         inkscape:connector-curvature="0" />
      <path
         d="m 228.71751,130.44394 q 0.67412,0 0.87492,0.61197 V 130.53 h 0.98011 v 6.50217 q 0,1.28131 -0.96576,1.63988 -0.33467,0.12431 -0.77453,0.12431 -0.8797,0 -1.4582,-0.45898 l 0.35379,-0.66934 q 0.52113,0.3538 1.10441,0.3538 0.38727,0 0.57373,-0.24384 0.18645,-0.24383 0.18645,-0.65499 v -0.68369 q -0.12908,0.33467 -0.35857,0.46376 -0.23905,0.12909 -0.59285,0.12909 -0.71715,0 -0.98488,-0.60719 -0.26774,-0.60719 -0.26774,-1.63033 v -2.05583 q 0,-2.29488 1.32912,-2.29488 z m 0.87492,2.15145 q 0,-0.69803 -0.12908,-1.01357 -0.12431,-0.32033 -0.44464,-0.32033 -0.31554,0 -0.44463,0.18168 -0.12909,0.18168 -0.16734,0.45419 -0.0335,0.27252 -0.0335,0.68847 v 2.23273 q 0,0.76018 0.13865,1.09963 0.13865,0.33467 0.52113,0.33467 0.2008,0 0.31554,-0.11474 0.23905,-0.23427 0.24383,-1.32912 z"
         style="font-style:normal;font-variant:normal;font-weight:normal;font-stretch:normal;font-family:Antonio;-inkscape-font-specification:Antonio;fill:#88aa00;stroke:#000000;stroke-width:0.155;stroke-miterlimit:4;stroke-dasharray:none;stroke-opacity:1"
         id="path5510"
         inkscape:connector-curvature="0" />
      <path
         d="m 232.05944,136.75487 h 0.83668 v 0.94664 h -0.83668 z"
         style="font-style:normal;font-variant:normal;font-weight:normal;font-stretch:normal;font-family:Antonio;-inkscape-font-specification:Antonio;fill:#88aa00;stroke:#000000;stroke-width:0.155;stroke-miterlimit:4;stroke-dasharray:none;stroke-opacity:1"
         id="path5512"
         inkscape:connector-curvature="0" />
    </g>
  </g>
</svg>
