<?xml version="1.0" encoding="UTF-8" standalone="no"?>
<svg
   xmlns:dc="http://purl.org/dc/elements/1.1/"
   xmlns:cc="http://creativecommons.org/ns#"
   xmlns:rdf="http://www.w3.org/1999/02/22-rdf-syntax-ns#"
   xmlns:svg="http://www.w3.org/2000/svg"
   xmlns="http://www.w3.org/2000/svg"
   width="400"
   height="400"
   viewBox="0 0 112.88888 112.88887"
   version="1.1"
   id="svg8">
  <defs
     id="defs2">
    <filter
       style="color-interpolation-filters:sRGB"
       id="filter4805">
      <feFlood
         flood-opacity="0.580392"
         flood-color="rgb(0,0,0)"
         result="flood"
         id="feFlood4795" />
      <feComposite
         in="flood"
         in2="SourceGraphic"
         operator="in"
         result="composite1"
         id="feComposite4797" />
      <feGaussianBlur
         in="composite1"
         stdDeviation="1"
         result="blur"
         id="feGaussianBlur4799" />
      <feOffset
         dx="1"
         dy="1"
         result="offset"
         id="feOffset4801" />
      <feComposite
         in="SourceGraphic"
         in2="offset"
         operator="over"
         result="composite2"
         id="feComposite4803" />
    </filter>
    <filter
       style="color-interpolation-filters:sRGB"
       id="filter4817">
      <feFlood
         flood-opacity="0.580392"
         flood-color="rgb(0,0,0)"
         result="flood"
         id="feFlood4807" />
      <feComposite
         in="flood"
         in2="SourceGraphic"
         operator="in"
         result="composite1"
         id="feComposite4809" />
      <feGaussianBlur
         in="composite1"
         stdDeviation="1"
         result="blur"
         id="feGaussianBlur4811" />
      <feOffset
         dx="1"
         dy="1"
         result="offset"
         id="feOffset4813" />
      <feComposite
         in="SourceGraphic"
         in2="offset"
         operator="over"
         result="composite2"
         id="feComposite4815" />
    </filter>
    <filter
       style="color-interpolation-filters:sRGB"
       id="filter4829">
      <feFlood
         flood-opacity="0.580392"
         flood-color="rgb(0,0,0)"
         result="flood"
         id="feFlood4819" />
      <feComposite
         in="flood"
         in2="SourceGraphic"
         operator="in"
         result="composite1"
         id="feComposite4821" />
      <feGaussianBlur
         in="composite1"
         stdDeviation="1"
         result="blur"
         id="feGaussianBlur4823" />
      <feOffset
         dx="1"
         dy="1"
         result="offset"
         id="feOffset4825" />
      <feComposite
         in="SourceGraphic"
         in2="offset"
         operator="over"
         result="composite2"
         id="feComposite4827" />
    </filter>
    <filter
       style="color-interpolation-filters:sRGB"
       id="filter4841">
      <feFlood
         flood-opacity="0.580392"
         flood-color="rgb(0,0,0)"
         result="flood"
         id="feFlood4831" />
      <feComposite
         in="flood"
         in2="SourceGraphic"
         operator="in"
         result="composite1"
         id="feComposite4833" />
      <feGaussianBlur
         in="composite1"
         stdDeviation="1"
         result="blur"
         id="feGaussianBlur4835" />
      <feOffset
         dx="1"
         dy="1"
         result="offset"
         id="feOffset4837" />
      <feComposite
         in="SourceGraphic"
         in2="offset"
         operator="over"
         result="composite2"
         id="feComposite4839" />
    </filter>
    <filter
       style="color-interpolation-filters:sRGB"
       id="filter4853">
      <feFlood
         flood-opacity="0.580392"
         flood-color="rgb(0,0,0)"
         result="flood"
         id="feFlood4843" />
      <feComposite
         in="flood"
         in2="SourceGraphic"
         operator="in"
         result="composite1"
         id="feComposite4845" />
      <feGaussianBlur
         in="composite1"
         stdDeviation="1"
         result="blur"
         id="feGaussianBlur4847" />
      <feOffset
         dx="1"
         dy="1"
         result="offset"
         id="feOffset4849" />
      <feComposite
         in="SourceGraphic"
         in2="offset"
         operator="over"
         result="composite2"
         id="feComposite4851" />
    </filter>
  </defs>
  <metadata
     id="metadata5">
    <rdf:RDF>
      <cc:Work
         rdf:about="">
        <dc:format>image/svg+xml</dc:format>
        <dc:type
           rdf:resource="http://purl.org/dc/dcmitype/StillImage" />
        <dc:title></dc:title>
      </cc:Work>
    </rdf:RDF>
  </metadata>
  <g
     id="layer1"
     transform="translate(8.2590565,-38.896685)">
    <path
       style="fill:none;fill-opacity:1;stroke:#88aa00;stroke-width:16.80342293;stroke-miterlimit:4;stroke-dasharray:none;stroke-opacity:0.82509508;filter:url(#filter4853)"
       id="path4662-9-1"
       d="M 46.088495,137.37368 5.6808291,156.43705 -31.032369,130.97467 -27.3379,86.448921 13.069766,67.385549 49.782964,92.847928 Z"
       transform="matrix(0.44296337,0.71394975,-0.7530046,0.46719457,127.92597,36.04846)" />
    <g
       id="text3701"
       style="font-style:normal;font-variant:normal;font-weight:normal;font-stretch:normal;font-size:46.98036957px;line-height:1.25;font-family:Teko;-inkscape-font-specification:Teko;letter-spacing:0px;word-spacing:0px;fill:#343a40;fill-opacity:1;stroke:none;stroke-width:1.17450917;stroke-opacity:1;filter:url(#filter4829)"
       transform="matrix(1.4967258,0,0,1.4967258,-22.343886,-30.948638)">
      <path
         id="path4178"
         style="font-style:normal;font-variant:normal;font-weight:normal;font-stretch:normal;font-family:Teko;-inkscape-font-specification:Teko;fill:#343a40;fill-opacity:1;stroke:none;stroke-width:1.17450917;stroke-opacity:1"
         d="m 29.136676,59.076586 -14.094111,0 0,3.429567 4.932939,0 0,25.980145 4.228233,0 0,-25.980145 4.932939,0 0,-3.429567 z" />
      <path
         id="path4180"
         style="font-style:normal;font-variant:normal;font-weight:normal;font-stretch:normal;font-family:Teko;-inkscape-font-specification:Teko;fill:#343a40;fill-opacity:1;stroke:none;stroke-width:1.17450917;stroke-opacity:1"
         d="m 29.864872,65.559877 4.791998,22.550578 2.302038,0 -0.469804,1.926195 c -0.328863,1.26847 -1.174509,1.550352 -2.442979,1.550352 l -1.926195,0 0,3.382587 2.818822,0 c 3.100704,0 4.745017,-1.503372 5.402742,-4.275214 l 4.838978,-25.134498 -4.275213,0 -3.241646,19.214971 -3.476547,-19.214971 -4.322194,0 z" />
    </g>
    <g
       id="text3707"
       style="font-style:normal;font-variant:normal;font-weight:normal;font-stretch:normal;font-size:50.9858551px;line-height:1.25;font-family:Teko;-inkscape-font-specification:Teko;letter-spacing:0px;word-spacing:0px;fill:#f4ffc8;fill-opacity:1;stroke:none;stroke-width:1.27464652;stroke-opacity:1;filter:url(#filter4817)"
       transform="matrix(1.4967258,0,0,1.4967258,-17.828334,-47.317514)">
      <path
         id="path4173"
         style="font-style:normal;font-variant:normal;font-weight:normal;font-stretch:normal;font-family:Teko;-inkscape-font-specification:Teko;fill:#f4ffc8;fill-opacity:1;stroke:none;stroke-width:1.27464652;stroke-opacity:1"
         d="m 53.003328,102.357 c 0,1.22366 -0.305915,1.52957 -1.529576,1.52957 l -4.486755,0 0,-12.185614 4.486755,0 c 1.223661,0 1.529576,0.254929 1.529576,1.478589 l 0,9.177455 z M 42.39827,87.978988 l 0,31.917142 4.588727,0 0,-12.33857 5.863373,0 c 3.314081,0 4.741685,-1.52958 4.741685,-4.48676 l 0,-10.605057 c 0,-2.906193 -1.427604,-4.486755 -4.741685,-4.486755 l -10.4521,0 z" />
      <path
         id="path4175"
         style="font-style:normal;font-variant:normal;font-weight:normal;font-stretch:normal;font-family:Teko;-inkscape-font-specification:Teko;fill:#f4ffc8;fill-opacity:1;stroke:none;stroke-width:1.27464652;stroke-opacity:1"
         d="m 65.694026,105.51812 0,-5.4045 c 0,-1.172673 0.305915,-1.478588 1.529575,-1.478588 l 2.498307,0 c 1.223661,0 1.47859,0.305915 1.47859,1.478588 l 0,5.4045 -5.506472,0 z m 0.254929,-10.503084 c -3.263095,0 -4.741685,1.580562 -4.741685,4.537741 l 0,15.856603 c 0,2.90619 1.47859,4.48675 4.741685,4.48675 l 4.894642,0 c 3.263095,0 4.741685,-1.58056 4.741685,-4.48675 l 0,-2.70225 -4.486756,0 0,2.03943 c 0,1.22366 -0.305915,1.52958 -1.529575,1.52958 l -2.34535,0 c -1.22366,0 -1.529575,-0.30592 -1.529575,-1.47859 l 0,-5.91436 10.044213,0 0,-9.330413 c 0,-2.957179 -1.47859,-4.537741 -4.79267,-4.537741 l -4.996614,0 z" />
    </g>
  </g>
</svg>
